<svg id="Layer_1" data-name="Layer 1" xmlns="http://www.w3.org/2000/svg" viewBox="0 0 59.7 57.96"><defs><style>.cls-1{fill:#285ba6;stroke:#fff;stroke-miterlimit:10;}</style></defs><title>githubMM</title><path class="cls-1" d="M479.9,251.4a29.19,29.19,0,0,0-9.2,56.9c1.5,0.3,2-.6,2-1.4v-5c-8.1,1.8-9.8-3.9-9.8-3.9-1.3-3.4-3.2-4.3-3.2-4.3-2.7-1.8.2-1.8,0.2-1.8,2.9,0.2,4.5,3,4.5,3,2.6,4.5,6.8,3.2,8.5,2.4a6,6,0,0,1,1.9-3.9c-6.5-.7-13.3-3.2-13.3-14.4a11,11,0,0,1,3-7.8,10.39,10.39,0,0,1,.3-7.7s2.5-.8,8,3a27.14,27.14,0,0,1,14.6,0c5.6-3.8,8-3,8-3a10.39,10.39,0,0,1,.3,7.7,11,11,0,0,1,3,7.8c0,11.2-6.8,13.7-13.3,14.4,1.1,0.9,2,2.7,2,5.4v8c0,0.8.5,1.7,2,1.4A29.14,29.14,0,0,0,479.9,251.4Z" transform="translate(-450.2 -250.9)"/></svg>