<?xml version="1.0" encoding="utf-8"?>
<!-- Generator: Adobe Illustrator 19.2.0, SVG Export Plug-In . SVG Version: 6.00 Build 0)  -->
<svg version="1.1" id="Layer_1" xmlns="http://www.w3.org/2000/svg" xmlns:xlink="http://www.w3.org/1999/xlink" x="0px" y="0px"
	 viewBox="0 0 960 560" style="enable-background:new 0 0 960 560;" xml:space="preserve">
<style type="text/css">
	.st0{fill:#285BA6;stroke:#FFFFFF;stroke-miterlimit:10;}
</style>
<g>
	<path class="st0" d="M479.9,251.4c-16.1,0-29.2,13.1-29.2,29.2c0,12.9,8.4,23.9,20,27.7c1.5,0.3,2-0.6,2-1.4c0-0.7,0-2.5,0-5
		c-8.1,1.8-9.8-3.9-9.8-3.9c-1.3-3.4-3.2-4.3-3.2-4.3c-2.7-1.8,0.2-1.8,0.2-1.8c2.9,0.2,4.5,3,4.5,3c2.6,4.5,6.8,3.2,8.5,2.4
		c0.3-1.9,1-3.2,1.9-3.9c-6.5-0.7-13.3-3.2-13.3-14.4c0-3.2,1.1-5.8,3-7.8c-0.3-0.7-1.3-3.7,0.3-7.7c0,0,2.5-0.8,8,3
		c2.3-0.7,4.8-1,7.3-1c2.5,0,5,0.3,7.3,1c5.6-3.8,8-3,8-3c1.6,4,0.6,7,0.3,7.7c1.9,2,3,4.6,3,7.8c0,11.2-6.8,13.7-13.3,14.4
		c1.1,0.9,2,2.7,2,5.4c0,3.9,0,7.1,0,8c0,0.8,0.5,1.7,2,1.4c11.6-3.9,20-14.8,20-27.7C509.1,264.4,496.1,251.4,479.9,251.4z"/>
</g>
</svg>
