<svg id="Layer_1" data-name="Layer 1" xmlns="http://www.w3.org/2000/svg" viewBox="0 0 50 50"><defs><style>.cls-1,.cls-2{fill:#285ba6;stroke:#fff;stroke-miterlimit:10;}.cls-2{opacity:0.78;isolation:isolate;}</style></defs><title>linkedin</title><g id="layer1"><path id="rect1942" class="cls-1" d="M497.06,255.36h-34.2a7.38,7.38,0,0,0-7.4,7.4V297a7.38,7.38,0,0,0,7.4,7.4h34.2a7.38,7.38,0,0,0,7.4-7.4v-34.2A7.38,7.38,0,0,0,497.06,255.36Z" transform="translate(-454.96 -254.86)"/><path id="path1950" class="cls-2" d="M491.56,257.46h-23.2a11.05,11.05,0,0,0-11,11.1v22.6c0.2,4.8,1,1.8,2.4-3.6,1.7-6.2,7.2-11.6,13.9-15.7,5.1-3.1,10.8-5.1,21.2-5.3C500.76,266.56,500.26,259,491.56,257.46Z" transform="translate(-454.96 -254.86)"/></g><g id="layer1-2" data-name="layer1"><g id="g3019"><path id="path28" class="cls-1" d="M470.29,296.53V274.32H463v22.21h7.34Zm-3.67-25.27a3.88,3.88,0,1,0,.1-7.74,3.83,3.83,0,0,0-4.18,3.87c-0.1,2.24,1.53,3.87,4.08,3.87h0Z" transform="translate(-454.96 -254.86)"/><path id="path30" class="cls-1" d="M474.37,296.53h7.34V284.2a5.06,5.06,0,0,1,.2-1.83,4,4,0,0,1,3.77-2.65c2.65,0,3.77,2,3.77,5v11.82h7.34V283.79c0-6.83-3.67-10-8.46-10a7.46,7.46,0,0,0-6.72,3.77h0v-3.26h-7.23c0.1,2,0,22.21,0,22.21h0Z" transform="translate(-454.96 -254.86)"/></g></g></svg>