<?xml version="1.0" encoding="utf-8"?>
<!-- Generator: Adobe Illustrator 19.2.0, SVG Export Plug-In . SVG Version: 6.00 Build 0)  -->
<svg version="1.1" id="Layer_1" xmlns="http://www.w3.org/2000/svg" xmlns:xlink="http://www.w3.org/1999/xlink" x="0px" y="0px"
	 viewBox="0 0 960 560" style="enable-background:new 0 0 960 560;" xml:space="preserve">
<style type="text/css">
	.st0{fill:#285BA6;stroke:#FFFFFF;stroke-miterlimit:10;}
	.st1{opacity:0.7811;fill:#285BA6;stroke:#FFFFFF;stroke-miterlimit:10;enable-background:new    ;}
</style>
<g>
	
		<sodipodi:namedview  bordercolor="#666666" borderopacity="1.0" id="base" inkscape:current-layer="layer1" inkscape:cx="138.80354" inkscape:cy="94.798647" inkscape:document-units="px" inkscape:pageopacity="0.0" inkscape:pageshadow="2" inkscape:window-height="674" inkscape:window-maximized="0" inkscape:window-width="853" inkscape:window-x="1" inkscape:window-y="281" inkscape:zoom="0.24748737" pagecolor="#ffffff" showgrid="false">
		</sodipodi:namedview>
	<g id="layer1_6_" transform="translate(-373.642,-318.344)" inkscape:groupmode="layer" inkscape:label="Layer 1">
		
			<path id="rect1942_3_" inkscape:export-filename="C:\Documents and Settings\Molumen\Desktop\path3511111.png" inkscape:export-xdpi="7.7063322" inkscape:export-ydpi="7.7063322" class="st0" d="
			M870.7,573.7h-34.2c-4.1,0-7.4,3.3-7.4,7.4v34.2c0,4.1,3.3,7.4,7.4,7.4h34.2c4.1,0,7.4-3.3,7.4-7.4v-34.2
			C878.1,577,874.8,573.7,870.7,573.7z"/>
		
			<path id="path1950_3_" inkscape:export-filename="C:\Documents and Settings\Molumen\Desktop\path3511111.png" inkscape:export-xdpi="7.7063322" inkscape:export-ydpi="7.7063322" sodipodi:nodetypes="ccccsssc" class="st1" d="
			M865.2,575.8H842c-6.1,0-11,5-11,11.1v22.6c0.2,4.8,1,1.8,2.4-3.6c1.7-6.2,7.2-11.6,13.9-15.7c5.1-3.1,10.8-5.1,21.2-5.3
			C874.4,584.9,873.9,577.3,865.2,575.8z"/>
	</g>
	<g id="layer1_5_" transform="translate(-200.55198,-393.96227)" inkscape:groupmode="layer" inkscape:label="Layer 1">
		<g id="g3019_3_" transform="matrix(1.018827,0,0,-1.018827,170.5996,498.03288)">
			<path id="path28_3_" inkscape:connector-curvature="0" class="st0" d="M491-188.9v21.8h-7.2v-21.8H491z M487.4-164.1
				c2.5,0,4.1,1.7,4.1,3.8c0,2.1-1.6,3.8-4,3.8c-2.5,0-4.1-1.6-4.1-3.8C483.3-162.5,484.9-164.1,487.4-164.1L487.4-164.1
				L487.4-164.1z"/>
			<path id="path30_3_" inkscape:connector-curvature="0" class="st0" d="M495-188.9h7.2v12.1c0,0.7,0,1.3,0.2,1.8
				c0.5,1.3,1.7,2.6,3.7,2.6c2.6,0,3.7-2,3.7-4.9v-11.6h7.2v12.5c0,6.7-3.6,9.8-8.3,9.8c-3.9,0-5.6-2.2-6.6-3.7h0v3.2H495
				C495.1-169.1,495-188.9,495-188.9L495-188.9z"/>
		</g>
	</g>
</g>
</svg>
