<svg id="Layer_1" data-name="Layer 1" xmlns="http://www.w3.org/2000/svg" viewBox="0 0 36.5 51.7"><defs><style>.cls-1{fill:#285ba6;stroke:#fff;stroke-miterlimit:10;}</style></defs><title>angelCo</title><path class="cls-1" d="M462.6,290.7a7.93,7.93,0,0,1,1.4-4.9,6.47,6.47,0,0,1,3.7-2.2,9.84,9.84,0,0,1-.8-2.9,5.45,5.45,0,0,1,1.7-3.5,5,5,0,0,1,3.4-1.7,5.44,5.44,0,0,1,2,.4c-1.6-4.5-2.7-8-3.4-10.3a23.81,23.81,0,0,1-1.2-5.7,5.31,5.31,0,0,1,1.2-3.7,4.22,4.22,0,0,1,3.3-1.4c2.4,0,5.3,4.9,8.6,14.7l0.8,2.4c0.2-.5.4-1,0.6-1.6,3.3-9.7,6.3-14.5,9-14.5a3.74,3.74,0,0,1,3.1,1.3,5.13,5.13,0,0,1,1.2,3.5,26.54,26.54,0,0,1-1.2,5.6q-1.05,3.6-3.3,9.9a6.8,6.8,0,0,1,4.1,2.7c0.9,1.4,1.3,3.6,1.3,6.6a20.55,20.55,0,0,1-5.3,14.5,18.17,18.17,0,0,1-13.6,5.6,16.81,16.81,0,0,1-6.3-1.2,14.76,14.76,0,0,1-5.3-3.3,16.68,16.68,0,0,1-3.8-4.9A13.93,13.93,0,0,1,462.6,290.7Zm3.2-.3a7.14,7.14,0,0,0,.7,2.9,14.31,14.31,0,0,0,6.7,7.3,14.68,14.68,0,0,0,6.4,1.4,14,14,0,0,0,10.8-4.8,17.25,17.25,0,0,0,4.3-12.1,15.6,15.6,0,0,0-.3-3.5,3.93,3.93,0,0,0-.9-1.7c-0.9-.8-2.7-1.4-5.3-2a37.31,37.31,0,0,0-8.4-.9,2.21,2.21,0,0,0-1.4.3,1.06,1.06,0,0,0-.3,1c0,1.4.8,2.3,2.3,2.9,1.7,0.7,4.4,1,8.2,1H490a1.29,1.29,0,0,1,1.1.5,2.64,2.64,0,0,1,.5,1.5,6.84,6.84,0,0,1-2.7,1.5,8.82,8.82,0,0,0-2.6,1.3,12.86,12.86,0,0,0-3.2,3.4,6.84,6.84,0,0,0-1.1,3.7,9.15,9.15,0,0,0,.5,2.5,7,7,0,0,1,.5,2.1V299l-0.2.7a3.75,3.75,0,0,1-3.2-2,8.3,8.3,0,0,1-.9-4.1h-1.1v0.6a3.41,3.41,0,0,1-1.1,2.5,3.94,3.94,0,0,1-2.7,1,6.81,6.81,0,0,1-4.7-2.2q-2.4-2.25-2.4-4.5a2.2,2.2,0,0,1,.1-0.8,2.52,2.52,0,0,1,.8-1.1c0.8,1,1.4,1.7,1.7,2.1,1.4,2,2.7,2.9,3.8,2.9a1.14,1.14,0,0,0,.8-0.3,0.91,0.91,0,0,0,.3-0.5,3.48,3.48,0,0,0-.6-1.4c-0.3-.5-0.9-1.4-1.8-2.6a22.11,22.11,0,0,0-2.2-2.5,2,2,0,0,0-1.1-.7,2.56,2.56,0,0,0-1.8,1.1A6.77,6.77,0,0,0,465.8,290.4Zm4.5-9.5a6.57,6.57,0,0,0,.8,2.2,36.32,36.32,0,0,0,2.2,3.4,22.73,22.73,0,0,0,2.8,3.1,3.26,3.26,0,0,0,1.8,1,1.08,1.08,0,0,0,.7-0.3,1.33,1.33,0,0,0,.3-0.8,11.35,11.35,0,0,0-.9-2.9,39.43,39.43,0,0,0-2.3-4.6,9,9,0,0,0-1.9-2.4,2.08,2.08,0,0,0-1.5-.7,1.55,1.55,0,0,0-1.2.7A2.09,2.09,0,0,0,470.3,280.9Zm2.3-21.5a19.27,19.27,0,0,0,1.2,5.3c0.7,2.4,1.8,5.5,3.3,9.5a2.65,2.65,0,0,1,1.4-.3h0.8a9.28,9.28,0,0,1,1.3.1l-3.4-9.9a26.82,26.82,0,0,0-2.2-5.2,1.67,1.67,0,0,0-1.3-1,0.75,0.75,0,0,0-.7.4A1.5,1.5,0,0,0,472.6,259.4Zm8.2,25.4c0.3,0.8.6,1.6,0.9,2.5a11.67,11.67,0,0,1,2-1.9c-0.2,0-.4-0.1-0.7-0.1a5.64,5.64,0,0,1-.7-0.1C481.6,285,481.1,284.9,480.8,284.8Zm5.2-10.2,3.3,0.6c1.5-4.1,2.6-7.4,3.4-9.9a29.51,29.51,0,0,0,1.2-4.8,2.13,2.13,0,0,0-.3-1.2,0.78,0.78,0,0,0-.7-0.3,2,2,0,0,0-1.5,1.3,26.5,26.5,0,0,0-2.1,5Z" transform="translate(-462.1 -254.3)"/></svg>